<?xml version="1.0" standalone="no"?><!DOCTYPE svg PUBLIC "-//W3C//DTD SVG 1.1//EN" "http://www.w3.org/Graphics/SVG/1.1/DTD/svg11.dtd"><svg t="1528791680247" class="icon" style="" viewBox="0 0 1024 1024" version="1.1" xmlns="http://www.w3.org/2000/svg" p-id="2116" xmlns:xlink="http://www.w3.org/1999/xlink" width="200" height="200"><defs><style type="text/css"></style></defs><path d="M499.930609 7.797405l-150.343706 329.196673a12.914451 12.914451 0 0 1-10.477762 7.797404L12.105487 382.316492a13.15812 13.15812 0 0 0-7.310066 22.904875l247.811263 223.931712a13.889127 13.889127 0 0 1 4.142371 12.183445l-66.03427 365.503338a13.15812 13.15812 0 0 0 20.468187 13.15812L487.747165 829.692577a12.914451 12.914451 0 0 1 14.376464 0l309.215824 192.254756a13.15812 13.15812 0 0 0 19.737181-14.620133l-95.518206-354.538238a13.15812 13.15812 0 0 1 4.142371-13.645458l277.295199-233.678468a13.15812 13.15812 0 0 0-7.066398-24.366889l-319.693586-34.357314a13.401789 13.401789 0 0 1-10.477762-7.553735L523.810161 7.553736a13.15812 13.15812 0 0 0-23.879552 0.243669z" fill="#66bb6a" p-id="2117"></path></svg>