<?xml version="1.0" standalone="no"?><!DOCTYPE svg PUBLIC "-//W3C//DTD SVG 1.1//EN" "http://www.w3.org/Graphics/SVG/1.1/DTD/svg11.dtd"><svg t="1529326736351" class="icon" style="" viewBox="0 0 1024 1024" version="1.1" xmlns="http://www.w3.org/2000/svg" p-id="1964" xmlns:xlink="http://www.w3.org/1999/xlink" width="200" height="200"><defs><style type="text/css"></style></defs><path d="M1024 44.608l-341.76 340.736 209.792 0c17.408 0 31.616 14.144 31.616 31.552 0 17.408-14.208 31.552-31.616 31.552L608.128 448.448c-8.832 0-16.768-3.648-22.528-9.472C579.52 433.728 575.616 426.24 575.616 416.896L575.616 132.928c0-17.408 14.144-31.552 31.68-31.552s31.616 14.144 31.616 31.552L637.888 340.352 979.264 0 1024 44.608zM416.768 922.624c-17.472 0-31.616-14.144-31.616-31.552l1.024-207.424L44.736 1024 0 979.392l341.696-340.736L131.968 638.656c-17.472 0-31.616-14.208-31.616-31.552 0-17.408 14.144-31.552 31.616-31.552l283.904 0c8.896 0 16.832 3.712 22.592 9.408C444.48 590.272 448.384 597.76 448.384 607.104l0 283.968C448.384 908.48 434.24 922.624 416.768 922.624z" p-id="1965" fill="#ffffff"></path></svg>