<svg xmlns="http://www.w3.org/2000/svg" width="1440" height="900"><path d="M782,387L644,508L789,515Z" fill="#78c9c6" stroke="#78c9c6" stroke-width="1.51"/><path d="M782,387L640,364L644,508Z" fill="#83cec2" stroke="#83cec2" stroke-width="1.51"/><path d="M644,508L658,663L789,515Z" fill="#72c5c8" stroke="#72c5c8" stroke-width="1.51"/><path d="M789,515L943,374L782,387Z" fill="#76c7c7" stroke="#76c7c7" stroke-width="1.51"/><path d="M795,669L924,535L789,515Z" fill="#64bdcd" stroke="#64bdcd" stroke-width="1.51"/><path d="M510,374L504,516L644,508Z" fill="#8ad0c0" stroke="#8ad0c0" stroke-width="1.51"/><path d="M644,508L504,516L658,663Z" fill="#7cc8c5" stroke="#7cc8c5" stroke-width="1.51"/><path d="M640,364L510,374L644,508Z" fill="#8cd1bf" stroke="#8cd1bf" stroke-width="1.51"/><path d="M782,387L656,238L640,364Z" fill="#8ed2be" stroke="#8ed2be" stroke-width="1.51"/><path d="M640,364L503,226L510,374Z" fill="#9bd7ba" stroke="#9bd7ba" stroke-width="1.51"/><path d="M802,223L656,238L782,387Z" fill="#90d2be" stroke="#90d2be" stroke-width="1.51"/><path d="M658,663L795,669L789,515Z" fill="#67bfcc" stroke="#67bfcc" stroke-width="1.51"/><path d="M924,535L943,374L789,515Z" fill="#6cc2ca" stroke="#6cc2ca" stroke-width="1.51"/><path d="M943,374L802,223L782,387Z" fill="#84cbc3" stroke="#84cbc3" stroke-width="1.51"/><path d="M795,669L925,667L924,535Z" fill="#59b8d0" stroke="#59b8d0" stroke-width="1.51"/><path d="M1086,523L1082,381L943,374Z" fill="#68bbc8" stroke="#68bbc8" stroke-width="1.51"/><path d="M504,516L504,678L658,663Z" fill="#7bc5c6" stroke="#7bc5c6" stroke-width="1.51"/><path d="M658,663L783,820L795,669Z" fill="#5fb4c8" stroke="#5fb4c8" stroke-width="1.51"/><path d="M795,669L925,805L925,667Z" fill="#51aecc" stroke="#51aecc" stroke-width="1.51"/><path d="M656,238L503,226L640,364Z" fill="#9dd8ba" stroke="#9dd8ba" stroke-width="1.51"/><path d="M510,374L356,390L504,516Z" fill="#97d6bc" stroke="#97d6bc" stroke-width="1.51"/><path d="M504,516L368,665L504,678Z" fill="#84c9c5" stroke="#84c9c5" stroke-width="1.51"/><path d="M660,80L503,226L656,238Z" fill="#a6dcbd" stroke="#a6dcbd" stroke-width="1.51"/><path d="M943,374L944,233L802,223Z" fill="#87cbc3" stroke="#87cbc3" stroke-width="1.51"/><path d="M802,223L780,99L656,238Z" fill="#9ad6c1" stroke="#9ad6c1" stroke-width="1.51"/><path d="M926,100L780,99L802,223Z" fill="#9ad3c6" stroke="#9ad3c6" stroke-width="1.51"/><path d="M351,230L356,390L510,374Z" fill="#a6dbba" stroke="#a6dbba" stroke-width="1.51"/><path d="M515,799L659,819L658,663Z" fill="#6bb4c2" stroke="#6bb4c2" stroke-width="1.51"/><path d="M943,374L1076,232L944,233Z" fill="#81c6c5" stroke="#81c6c5" stroke-width="1.51"/><path d="M1086,523L943,374L924,535Z" fill="#63bccc" stroke="#63bccc" stroke-width="1.51"/><path d="M659,819L783,820L658,663Z" fill="#60b0c3" stroke="#60b0c3" stroke-width="1.51"/><path d="M1077,670L1086,523L924,535Z" fill="#53b2cf" stroke="#53b2cf" stroke-width="1.51"/><path d="M1077,670L924,535L925,667Z" fill="#4fb3d3" stroke="#4fb3d3" stroke-width="1.51"/><path d="M356,390L348,510L504,516Z" fill="#96d5c0" stroke="#96d5c0" stroke-width="1.51"/><path d="M780,99L660,80L656,238Z" fill="#a2dac2" stroke="#a2dac2" stroke-width="1.51"/><path d="M504,678L515,799L658,663Z" fill="#74bbc3" stroke="#74bbc3" stroke-width="1.51"/><path d="M368,665L515,799L504,678Z" fill="#7ebec0" stroke="#7ebec0" stroke-width="1.51"/><path d="M783,820L925,805L795,669Z" fill="#52abc7" stroke="#52abc7" stroke-width="1.51"/><path d="M348,510L368,665L504,516Z" fill="#8ecec4" stroke="#8ecec4" stroke-width="1.51"/><path d="M944,233L926,100L802,223Z" fill="#91cfc5" stroke="#91cfc5" stroke-width="1.51"/><path d="M782,-66L653,-48L660,80Z" fill="#addeca" stroke="#addeca" stroke-width="1.51"/><path d="M1089,95L926,100L944,233Z" fill="#90ccca" stroke="#90ccca" stroke-width="1.51"/><path d="M925,805L1077,670L925,667Z" fill="#47a9ce" stroke="#47a9ce" stroke-width="1.51"/><path d="M1082,381L1076,232L943,374Z" fill="#77c0c4" stroke="#77c0c4" stroke-width="1.51"/><path d="M503,226L351,230L510,374Z" fill="#a9ddb6" stroke="#a9ddb6" stroke-width="1.51"/><path d="M356,390L229,368L348,510Z" fill="#a2dac1" stroke="#a2dac1" stroke-width="1.51"/><path d="M365,92L351,230L503,226Z" fill="#b6e2bb" stroke="#b6e2bb" stroke-width="1.51"/><path d="M660,80L498,79L503,226Z" fill="#afe0be" stroke="#afe0be" stroke-width="1.51"/><path d="M351,230L229,368L356,390Z" fill="#acdebd" stroke="#acdebd" stroke-width="1.51"/><path d="M348,510L215,518L368,665Z" fill="#95d1c7" stroke="#95d1c7" stroke-width="1.51"/><path d="M1082,381L1213,365L1076,232Z" fill="#73b9c1" stroke="#73b9c1" stroke-width="1.51"/><path d="M1221,521L1213,365L1082,381Z" fill="#62b1c2" stroke="#62b1c2" stroke-width="1.51"/><path d="M1221,521L1082,381L1086,523Z" fill="#5cb1c6" stroke="#5cb1c6" stroke-width="1.51"/><path d="M1224,678L1221,521L1086,523Z" fill="#4ba7c8" stroke="#4ba7c8" stroke-width="1.51"/><path d="M925,805L1073,814L1077,670Z" fill="#3ea0c9" stroke="#3ea0c9" stroke-width="1.51"/><path d="M922,950L1073,814L925,805Z" fill="#3c9bc6" stroke="#3c9bc6" stroke-width="1.51"/><path d="M1224,678L1086,523L1077,670Z" fill="#46a7cc" stroke="#46a7cc" stroke-width="1.51"/><path d="M351,230L221,242L229,368Z" fill="#b6e2bc" stroke="#b6e2bc" stroke-width="1.51"/><path d="M498,79L365,92L503,226Z" fill="#b7e3bb" stroke="#b7e3bb" stroke-width="1.51"/><path d="M660,80L653,-48L498,79Z" fill="#b2e1c4" stroke="#b2e1c4" stroke-width="1.51"/><path d="M498,79L373,-47L365,92Z" fill="#c1e7c2" stroke="#c1e7c2" stroke-width="1.51"/><path d="M782,-66L660,80L780,99Z" fill="#a8dbc8" stroke="#a8dbc8" stroke-width="1.51"/><path d="M229,368L215,518L348,510Z" fill="#a1d9c4" stroke="#a1d9c4" stroke-width="1.51"/><path d="M368,665L348,812L515,799Z" fill="#7ebbbf" stroke="#7ebbbf" stroke-width="1.51"/><path d="M517,953L661,967L659,819Z" fill="#63a4ba" stroke="#63a4ba" stroke-width="1.51"/><path d="M203,678L348,812L368,665Z" fill="#89c2c5" stroke="#89c2c5" stroke-width="1.51"/><path d="M659,819L661,967L783,820Z" fill="#5aa6be" stroke="#5aa6be" stroke-width="1.51"/><path d="M783,820L922,950L925,805Z" fill="#489ec3" stroke="#489ec3" stroke-width="1.51"/><path d="M517,953L659,819L515,799Z" fill="#6babbb" stroke="#6babbb" stroke-width="1.51"/><path d="M926,100L782,-66L780,99Z" fill="#a2d7cb" stroke="#a2d7cb" stroke-width="1.51"/><path d="M1076,232L1089,95L944,233Z" fill="#89c6c6" stroke="#89c6c6" stroke-width="1.51"/><path d="M1229,225L1089,95L1076,232Z" fill="#84bec2" stroke="#84bec2" stroke-width="1.51"/><path d="M661,967L801,966L783,820Z" fill="#539ebd" stroke="#539ebd" stroke-width="1.51"/><path d="M933,-59L782,-66L926,100Z" fill="#a2d5d0" stroke="#a2d5d0" stroke-width="1.51"/><path d="M801,966L922,950L783,820Z" fill="#4a9bc0" stroke="#4a9bc0" stroke-width="1.51"/><path d="M369,956L517,953L515,799Z" fill="#73a9b6" stroke="#73a9b6" stroke-width="1.51"/><path d="M67,379L70,514L215,518Z" fill="#a8dbca" stroke="#a8dbca" stroke-width="1.51"/><path d="M228,101L221,242L351,230Z" fill="#bfe6bf" stroke="#bfe6bf" stroke-width="1.51"/><path d="M1073,814L1224,678L1077,670Z" fill="#3c9dc7" stroke="#3c9dc7" stroke-width="1.51"/><path d="M1089,95L933,-59L926,100Z" fill="#98cecf" stroke="#98cecf" stroke-width="1.51"/><path d="M653,-48L502,-60L498,79Z" fill="#b9e3c5" stroke="#b9e3c5" stroke-width="1.51"/><path d="M365,92L228,101L351,230Z" fill="#c0e7bf" stroke="#c0e7bf" stroke-width="1.51"/><path d="M644,-196L502,-60L653,-48Z" fill="#bae4cc" stroke="#bae4cc" stroke-width="1.51"/><path d="M1213,365L1229,225L1076,232Z" fill="#78b8bc" stroke="#78b8bc" stroke-width="1.51"/><path d="M1089,95L1079,-65L933,-59Z" fill="#99cbd0" stroke="#99cbd0" stroke-width="1.51"/><path d="M1359,380L1229,225L1213,365Z" fill="#6eaebb" stroke="#6eaebb" stroke-width="1.51"/><path d="M1359,380L1213,365L1221,521Z" fill="#5eaabf" stroke="#5eaabf" stroke-width="1.51"/><path d="M215,518L203,678L368,665Z" fill="#94cecb" stroke="#94cecb" stroke-width="1.51"/><path d="M85,670L203,678L215,518Z" fill="#99d0ce" stroke="#99d0ce" stroke-width="1.51"/><path d="M227,-51L228,101L365,92Z" fill="#cbebc5" stroke="#cbebc5" stroke-width="1.51"/><path d="M502,-60L373,-47L498,79Z" fill="#c1e7c3" stroke="#c1e7c3" stroke-width="1.51"/><path d="M348,812L369,956L515,799Z" fill="#79b0ba" stroke="#79b0ba" stroke-width="1.51"/><path d="M649,1093L794,1088L661,967Z" fill="#5492b1" stroke="#5492b1" stroke-width="1.51"/><path d="M218,962L369,956L348,812Z" fill="#7eadbb" stroke="#7eadbb" stroke-width="1.51"/><path d="M1073,814L1223,814L1224,678Z" fill="#3494c2" stroke="#3494c2" stroke-width="1.51"/><path d="M922,950L1092,943L1073,814Z" fill="#3591c2" stroke="#3591c2" stroke-width="1.51"/><path d="M1083,1086L1092,943L922,950Z" fill="#3087bd" stroke="#3087bd" stroke-width="1.51"/><path d="M1092,943L1223,814L1073,814Z" fill="#308ebf" stroke="#308ebf" stroke-width="1.51"/><path d="M1358,101L1233,93L1229,225Z" fill="#83b4bf" stroke="#83b4bf" stroke-width="1.51"/><path d="M1229,225L1233,93L1089,95Z" fill="#87bbc2" stroke="#87bbc2" stroke-width="1.51"/><path d="M1359,380L1221,521L1372,528Z" fill="#54a2bf" stroke="#54a2bf" stroke-width="1.51"/><path d="M203,678L204,818L348,812Z" fill="#8abec4" stroke="#8abec4" stroke-width="1.51"/><path d="M1222,-51L1079,-65L1089,95Z" fill="#94c3cc" stroke="#94c3cc" stroke-width="1.51"/><path d="M933,-59L803,-194L782,-66Z" fill="#aadad4" stroke="#aadad4" stroke-width="1.51"/><path d="M801,966L935,1099L922,950Z" fill="#408fbb" stroke="#408fbb" stroke-width="1.51"/><path d="M661,967L794,1088L801,966Z" fill="#4f95b8" stroke="#4f95b8" stroke-width="1.51"/><path d="M649,1093L661,967L517,953Z" fill="#609ab4" stroke="#609ab4" stroke-width="1.51"/><path d="M499,1086L649,1093L517,953Z" fill="#6497ae" stroke="#6497ae" stroke-width="1.51"/><path d="M1372,528L1221,521L1358,668Z" fill="#459cc3" stroke="#459cc3" stroke-width="1.51"/><path d="M203,678L78,796L204,818Z" fill="#8fc0c7" stroke="#8fc0c7" stroke-width="1.51"/><path d="M67,379L215,518L229,368Z" fill="#abddc6" stroke="#abddc6" stroke-width="1.51"/><path d="M67,379L229,368L74,243Z" fill="#b7e3c3" stroke="#b7e3c3" stroke-width="1.51"/><path d="M782,-66L644,-196L653,-48Z" fill="#b3e1cf" stroke="#b3e1cf" stroke-width="1.51"/><path d="M502,-60L490,-189L373,-47Z" fill="#c6e9c9" stroke="#c6e9c9" stroke-width="1.51"/><path d="M943,-208L803,-194L933,-59Z" fill="#a9d8d8" stroke="#a9d8d8" stroke-width="1.51"/><path d="M803,-194L644,-196L782,-66Z" fill="#b3e0d3" stroke="#b3e0d3" stroke-width="1.51"/><path d="M74,243L229,368L221,242Z" fill="#bae4bf" stroke="#bae4bf" stroke-width="1.51"/><path d="M1358,668L1221,521L1224,678Z" fill="#3e9dc7" stroke="#3e9dc7" stroke-width="1.51"/><path d="M360,1107L499,1086L369,956Z" fill="#719aad" stroke="#719aad" stroke-width="1.51"/><path d="M369,956L499,1086L517,953Z" fill="#6f9fb1" stroke="#6f9fb1" stroke-width="1.51"/><path d="M70,514L85,670L215,518Z" fill="#9fd5ce" stroke="#9fd5ce" stroke-width="1.51"/><path d="M1373,804L1358,668L1224,678Z" fill="#328fc0" stroke="#328fc0" stroke-width="1.51"/><path d="M75,100L221,242L228,101Z" fill="#c8eac4" stroke="#c8eac4" stroke-width="1.51"/><path d="M75,100L74,243L221,242Z" fill="#c5e9c4" stroke="#c5e9c4" stroke-width="1.51"/><path d="M794,1088L935,1099L801,966Z" fill="#458bb4" stroke="#458bb4" stroke-width="1.51"/><path d="M1092,943L1226,953L1223,814Z" fill="#2986bc" stroke="#2986bc" stroke-width="1.51"/><path d="M649,1093L935,1099L794,1088Z" fill="#4989ae" stroke="#4989ae" stroke-width="1.51"/><path d="M1359,380L1360,227L1229,225Z" fill="#72acb8" stroke="#72acb8" stroke-width="1.51"/><path d="M1505,232L1360,227L1359,380Z" fill="#70a5b5" stroke="#70a5b5" stroke-width="1.51"/><path d="M644,-196L490,-189L502,-60Z" fill="#c2e7ce" stroke="#c2e7ce" stroke-width="1.51"/><path d="M373,-47L227,-51L365,92Z" fill="#caeac7" stroke="#caeac7" stroke-width="1.51"/><path d="M803,-194L943,-208L644,-196Z" fill="#b2ded8" stroke="#b2ded8" stroke-width="1.51"/><path d="M1079,-65L943,-208L933,-59Z" fill="#a1d2d8" stroke="#a1d2d8" stroke-width="1.51"/><path d="M1090,-195L943,-208L1079,-65Z" fill="#a1cfd9" stroke="#a1cfd9" stroke-width="1.51"/><path d="M366,-203L227,-51L373,-47Z" fill="#cfedcd" stroke="#cfedcd" stroke-width="1.51"/><path d="M1223,814L1373,804L1224,678Z" fill="#2e8dbf" stroke="#2e8dbf" stroke-width="1.51"/><path d="M1083,1086L1226,953L1092,943Z" fill="#2780b9" stroke="#2780b9" stroke-width="1.51"/><path d="M1233,93L1222,-51L1089,95Z" fill="#8fbec7" stroke="#8fbec7" stroke-width="1.51"/><path d="M1365,-53L1222,-51L1233,93Z" fill="#8db8c6" stroke="#8db8c6" stroke-width="1.51"/><path d="M204,818L218,962L348,812Z" fill="#84b3bf" stroke="#84b3bf" stroke-width="1.51"/><path d="M60,953L218,962L204,818Z" fill="#87b0c0" stroke="#87b0c0" stroke-width="1.51"/><path d="M-81,677L78,796L85,670Z" fill="#98c8d0" stroke="#98c8d0" stroke-width="1.51"/><path d="M85,670L78,796L203,678Z" fill="#94c6cc" stroke="#94c6cc" stroke-width="1.51"/><path d="M935,1099L1083,1086L922,950Z" fill="#3485b8" stroke="#3485b8" stroke-width="1.51"/><path d="M1505,232L1358,101L1360,227Z" fill="#7aa9b8" stroke="#7aa9b8" stroke-width="1.51"/><path d="M1360,227L1358,101L1229,225Z" fill="#7db0bb" stroke="#7db0bb" stroke-width="1.51"/><path d="M227,-51L75,100L228,101Z" fill="#d0ecc9" stroke="#d0ecc9" stroke-width="1.51"/><path d="M-86,391L70,514L67,379Z" fill="#b0e0cc" stroke="#b0e0cc" stroke-width="1.51"/><path d="M1226,953L1373,804L1223,814Z" fill="#2683ba" stroke="#2683ba" stroke-width="1.51"/><path d="M1520,513L1504,385L1372,528Z" fill="#5097ba" stroke="#5097ba" stroke-width="1.51"/><path d="M218,962L360,1107L369,956Z" fill="#7aa2b5" stroke="#7aa2b5" stroke-width="1.51"/><path d="M499,1086L360,1107L649,1093Z" fill="#6792a6" stroke="#6792a6" stroke-width="1.51"/><path d="M649,1093L360,1107L935,1099Z" fill="#588daa" stroke="#588daa" stroke-width="1.51"/><path d="M-81,78L-85,240L75,100Z" fill="#d1edce" stroke="#d1edce" stroke-width="1.51"/><path d="M490,-189L366,-203L373,-47Z" fill="#ccebcd" stroke="#ccebcd" stroke-width="1.51"/><path d="M644,-196L366,-203L490,-189Z" fill="#c9eacf" stroke="#c9eacf" stroke-width="1.51"/><path d="M943,-208L366,-203L644,-196Z" fill="#bde5d4" stroke="#bde5d4" stroke-width="1.51"/><path d="M1222,-51L1090,-195L1079,-65Z" fill="#99c6d2" stroke="#99c6d2" stroke-width="1.51"/><path d="M1372,528L1504,385L1359,380Z" fill="#589eba" stroke="#589eba" stroke-width="1.51"/><path d="M1520,513L1372,528L1521,671Z" fill="#4191bd" stroke="#4191bd" stroke-width="1.51"/><path d="M70,514L-81,677L85,670Z" fill="#9fd2d4" stroke="#9fd2d4" stroke-width="1.51"/><path d="M-86,391L-81,517L70,514Z" fill="#aeded1" stroke="#aeded1" stroke-width="1.51"/><path d="M-86,391L67,379L-85,240Z" fill="#bde5cb" stroke="#bde5cb" stroke-width="1.51"/><path d="M1521,671L1372,528L1358,668Z" fill="#3991c1" stroke="#3991c1" stroke-width="1.51"/><path d="M-85,240L67,379L74,243Z" fill="#c0e6c6" stroke="#c0e6c6" stroke-width="1.51"/><path d="M935,1099L1219,1093L1083,1086Z" fill="#2b78ae" stroke="#2b78ae" stroke-width="1.51"/><path d="M1083,1086L1219,1093L1226,953Z" fill="#2377b0" stroke="#2377b0" stroke-width="1.51"/><path d="M1226,953L1371,964L1373,804Z" fill="#1f7bb6" stroke="#1f7bb6" stroke-width="1.51"/><path d="M1504,385L1505,232L1359,380Z" fill="#679fb5" stroke="#679fb5" stroke-width="1.51"/><path d="M1365,-53L1232,-187L1222,-51Z" fill="#92bacc" stroke="#92bacc" stroke-width="1.51"/><path d="M1222,-51L1232,-187L1090,-195Z" fill="#99c3d2" stroke="#99c3d2" stroke-width="1.51"/><path d="M1666,376L1505,232L1504,385Z" fill="#6496ad" stroke="#6496ad" stroke-width="1.51"/><path d="M1365,-53L1233,93L1358,101Z" fill="#89b3c2" stroke="#89b3c2" stroke-width="1.51"/><path d="M1090,-195L1366,-203L943,-208Z" fill="#9fc8d7" stroke="#9fc8d7" stroke-width="1.51"/><path d="M1504,91L1365,-53L1358,101Z" fill="#86acbf" stroke="#86acbf" stroke-width="1.51"/><path d="M218,962L208,1107L360,1107Z" fill="#7c9cb0" stroke="#7c9cb0" stroke-width="1.51"/><path d="M78,796L60,953L204,818Z" fill="#8cb7c4" stroke="#8cb7c4" stroke-width="1.51"/><path d="M-78,798L60,953L78,796Z" fill="#90b9c9" stroke="#90b9c9" stroke-width="1.51"/><path d="M1219,1093L1371,964L1226,953Z" fill="#1b75b2" stroke="#1b75b2" stroke-width="1.51"/><path d="M1373,804L1521,671L1358,668Z" fill="#2e88bd" stroke="#2e88bd" stroke-width="1.51"/><path d="M74,1094L208,1107L218,962Z" fill="#819fb4" stroke="#819fb4" stroke-width="1.51"/><path d="M1521,803L1521,671L1373,804Z" fill="#2580b8" stroke="#2580b8" stroke-width="1.51"/><path d="M-81,517L-81,677L70,514Z" fill="#a6d7d5" stroke="#a6d7d5" stroke-width="1.51"/><path d="M-205,654L-81,677L-81,517Z" fill="#a6d5da" stroke="#a6d5da" stroke-width="1.51"/><path d="M67,-66L75,100L227,-51Z" fill="#d5efcf" stroke="#d5efcf" stroke-width="1.51"/><path d="M75,100L-85,240L74,243Z" fill="#c9eac9" stroke="#c9eac9" stroke-width="1.51"/><path d="M366,-203L214,-209L227,-51Z" fill="#d7efd2" stroke="#d7efd2" stroke-width="1.51"/><path d="M943,-208L214,-209L366,-203Z" fill="#c9ead0" stroke="#c9ead0" stroke-width="1.51"/><path d="M84,-187L67,-66L227,-51Z" fill="#daf1d4" stroke="#daf1d4" stroke-width="1.51"/><path d="M1505,232L1504,91L1358,101Z" fill="#7da6b8" stroke="#7da6b8" stroke-width="1.51"/><path d="M1651,98L1504,91L1505,232Z" fill="#7a9eb1" stroke="#7a9eb1" stroke-width="1.51"/><path d="M-81,677L-78,798L78,796Z" fill="#97c4d0" stroke="#97c4d0" stroke-width="1.51"/><path d="M1501,942L1521,803L1373,804Z" fill="#1b77b4" stroke="#1b77b4" stroke-width="1.51"/><path d="M67,-66L-81,78L75,100Z" fill="#d7efd0" stroke="#d7efd0" stroke-width="1.51"/><path d="M67,-66L-65,-57L-81,78Z" fill="#dcf2d6" stroke="#dcf2d6" stroke-width="1.51"/><path d="M214,-209L84,-187L227,-51Z" fill="#dcf1d5" stroke="#dcf1d5" stroke-width="1.51"/><path d="M60,953L74,1094L218,962Z" fill="#85a6bd" stroke="#85a6bd" stroke-width="1.51"/><path d="M-79,1093L74,1094L60,953Z" fill="#86a2bb" stroke="#86a2bb" stroke-width="1.51"/><path d="M1371,964L1501,942L1373,804Z" fill="#1a75b2" stroke="#1a75b2" stroke-width="1.51"/><path d="M1219,1093L1373,1100L1371,964Z" fill="#176caa" stroke="#176caa" stroke-width="1.51"/><path d="M935,1099L1373,1100L1219,1093Z" fill="#2371aa" stroke="#2371aa" stroke-width="1.51"/><path d="M360,1107L1373,1100L935,1099Z" fill="#3e83af" stroke="#3e83af" stroke-width="1.51"/><path d="M1523,1091L1501,942L1371,964Z" fill="#0a68ab" stroke="#0a68ab" stroke-width="1.51"/><path d="M1365,-53L1366,-203L1232,-187Z" fill="#94b8cd" stroke="#94b8cd" stroke-width="1.51"/><path d="M1232,-187L1366,-203L1090,-195Z" fill="#9ac0d3" stroke="#9ac0d3" stroke-width="1.51"/><path d="M1499,-194L1366,-203L1365,-53Z" fill="#91b1ca" stroke="#91b1ca" stroke-width="1.51"/><path d="M1649,674L1646,519L1521,671Z" fill="#3682b4" stroke="#3682b4" stroke-width="1.51"/><path d="M1521,671L1646,519L1520,513Z" fill="#3f89b6" stroke="#3f89b6" stroke-width="1.51"/><path d="M1520,513L1646,519L1504,385Z" fill="#4e90b2" stroke="#4e90b2" stroke-width="1.51"/><path d="M1649,674L1521,671L1521,803Z" fill="#2b7cb3" stroke="#2b7cb3" stroke-width="1.51"/><path d="M-78,798L-72,942L60,953Z" fill="#8fb4c8" stroke="#8fb4c8" stroke-width="1.51"/><path d="M1651,98L1503,-56L1504,91Z" fill="#82a1b6" stroke="#82a1b6" stroke-width="1.51"/><path d="M1504,91L1503,-56L1365,-53Z" fill="#88aac0" stroke="#88aac0" stroke-width="1.51"/><path d="M-74,-192L-65,-57L67,-66Z" fill="#e1f4db" stroke="#e1f4db" stroke-width="1.51"/><path d="M-78,798L-216,808L-72,942Z" fill="#96bbcf" stroke="#96bbcf" stroke-width="1.51"/><path d="M-81,677L-216,808L-78,798Z" fill="#9bc5d4" stroke="#9bc5d4" stroke-width="1.51"/><path d="M-86,391L-221,522L-81,517Z" fill="#b2dfd4" stroke="#b2dfd4" stroke-width="1.51"/><path d="M-224,391L-221,522L-86,391Z" fill="#b8e3d5" stroke="#b8e3d5" stroke-width="1.51"/><path d="M-224,391L-86,391L-214,239Z" fill="#c3e7d1" stroke="#c3e7d1" stroke-width="1.51"/><path d="M-86,391L-85,240L-214,239Z" fill="#c6e9cd" stroke="#c6e9cd" stroke-width="1.51"/><path d="M-214,239L-85,240L-81,78Z" fill="#d1edcf" stroke="#d1edcf" stroke-width="1.51"/><path d="M-221,522L-205,654L-81,517Z" fill="#acdada" stroke="#acdada" stroke-width="1.51"/><path d="M1646,519L1666,376L1504,385Z" fill="#558ead" stroke="#558ead" stroke-width="1.51"/><path d="M1646,519L1649,674L1666,376Z" fill="#4585ac" stroke="#4585ac" stroke-width="1.51"/><path d="M1642,815L1649,674L1521,803Z" fill="#2574ac" stroke="#2574ac" stroke-width="1.51"/><path d="M-225,78L-214,239L-81,78Z" fill="#d9f0d3" stroke="#d9f0d3" stroke-width="1.51"/><path d="M1666,376L1658,232L1505,232Z" fill="#6a94a7" stroke="#6a94a7" stroke-width="1.51"/><path d="M1649,674L1669,951L1666,376Z" fill="#2f79ad" stroke="#2f79ad" stroke-width="1.51"/><path d="M1501,942L1642,815L1521,803Z" fill="#1a6fac" stroke="#1a6fac" stroke-width="1.51"/><path d="M1669,951L1642,815L1501,942Z" fill="#1666a5" stroke="#1666a5" stroke-width="1.51"/><path d="M1652,-66L1651,98L1666,-206Z" fill="#839ab3" stroke="#839ab3" stroke-width="1.51"/><path d="M1658,232L1651,98L1505,232Z" fill="#7497aa" stroke="#7497aa" stroke-width="1.51"/><path d="M1503,-56L1499,-194L1365,-53Z" fill="#8cacc5" stroke="#8cacc5" stroke-width="1.51"/><path d="M-221,522L-216,808L-205,654Z" fill="#a6d2dd" stroke="#a6d2dd" stroke-width="1.51"/><path d="M-205,654L-216,808L-81,677Z" fill="#a0ccd8" stroke="#a0ccd8" stroke-width="1.51"/><path d="M-72,942L-79,1093L60,953Z" fill="#8baac4" stroke="#8baac4" stroke-width="1.51"/><path d="M-223,950L-216,808L-221,522Z" fill="#9fc7d7" stroke="#9fc7d7" stroke-width="1.51"/><path d="M1652,-66L1499,-194L1503,-56Z" fill="#89a4bf" stroke="#89a4bf" stroke-width="1.51"/><path d="M-207,-43L-81,78L-65,-57Z" fill="#dff3d9" stroke="#dff3d9" stroke-width="1.51"/><path d="M-207,-43L-225,78L-81,78Z" fill="#dff3d8" stroke="#dff3d8" stroke-width="1.51"/><path d="M-214,239L-225,78L-224,391Z" fill="#d0edd1" stroke="#d0edd1" stroke-width="1.51"/><path d="M-204,1096L-79,1093L-72,942Z" fill="#8ca5c1" stroke="#8ca5c1" stroke-width="1.51"/><path d="M74,1094L-79,1093L208,1107Z" fill="#829cb3" stroke="#829cb3" stroke-width="1.51"/><path d="M84,-187L-74,-192L67,-66Z" fill="#e1f4dc" stroke="#e1f4dc" stroke-width="1.51"/><path d="M214,-209L-74,-192L84,-187Z" fill="#e3f4dc" stroke="#e3f4dc" stroke-width="1.51"/><path d="M1373,1100L1523,1091L1371,964Z" fill="#0f65a6" stroke="#0f65a6" stroke-width="1.51"/><path d="M-74,-192L-207,-43L-65,-57Z" fill="#e4f5df" stroke="#e4f5df" stroke-width="1.51"/><path d="M-225,78L-223,950L-224,391Z" fill="#b6e2d8" stroke="#b6e2d8" stroke-width="1.51"/><path d="M-224,391L-223,950L-221,522Z" fill="#aad7df" stroke="#aad7df" stroke-width="1.51"/><path d="M-216,808L-223,950L-72,942Z" fill="#95b7ce" stroke="#95b7ce" stroke-width="1.51"/><path d="M1666,-206L1651,98L1658,232Z" fill="#7e97ad" stroke="#7e97ad" stroke-width="1.51"/><path d="M1651,98L1652,-66L1503,-56Z" fill="#839db4" stroke="#839db4" stroke-width="1.51"/><path d="M1523,1091L1669,951L1501,942Z" fill="#0960a4" stroke="#0960a4" stroke-width="1.51"/><path d="M1642,815L1669,951L1649,674Z" fill="#1e6ba6" stroke="#1e6ba6" stroke-width="1.51"/><path d="M-223,950L-204,1096L-72,942Z" fill="#91acc9" stroke="#91acc9" stroke-width="1.51"/><path d="M-79,1093L-204,1096L208,1107Z" fill="#859db7" stroke="#859db7" stroke-width="1.51"/><path d="M1523,1091L1665,1087L1669,951Z" fill="#095699" stroke="#095699" stroke-width="1.51"/><path d="M1373,1100L1665,1087L1523,1091Z" fill="#09599b" stroke="#09599b" stroke-width="1.51"/><path d="M-74,-192L-226,-188L-207,-43Z" fill="#eaf7e3" stroke="#eaf7e3" stroke-width="1.51"/><path d="M-207,-43L-226,-188L-225,78Z" fill="#e7f6e0" stroke="#e7f6e0" stroke-width="1.51"/><path d="M-225,78L-226,-188L-223,950Z" fill="#ccebd0" stroke="#ccebd0" stroke-width="1.51"/><path d="M214,-209L-226,-188L-74,-192Z" fill="#e7f6e0" stroke="#e7f6e0" stroke-width="1.51"/><path d="M1652,-66L1666,-206L1499,-194Z" fill="#8aa0bd" stroke="#8aa0bd" stroke-width="1.51"/><path d="M1499,-194L1666,-206L1366,-203Z" fill="#91aac8" stroke="#91aac8" stroke-width="1.51"/><path d="M1366,-203L1666,-206L943,-208Z" fill="#98b9d0" stroke="#98b9d0" stroke-width="1.51"/><path d="M1666,376L1666,-206L1658,232Z" fill="#7795a8" stroke="#7795a8" stroke-width="1.51"/><path d="M1669,951L1666,-206L1666,376Z" fill="#5b8ba5" stroke="#5b8ba5" stroke-width="1.51"/></svg>